<svg width="16" height="16" viewBox="0 0 16 16" fill="none" xmlns="http://www.w3.org/2000/svg">
<path d="M8.516 2.67441L8.51601 14.864C8.51601 15.092 8.43909 15.2829 8.28525 15.4368C8.13141 15.5906 7.94048 15.6675 7.71246 15.6675C7.48444 15.6675 7.29351 15.5906 7.13968 15.4368C6.98584 15.2829 6.90892 15.092 6.90892 14.864L6.90892 2.67441L1.37043 8.21289C1.21109 8.37223 1.02463 8.45086 0.81104 8.44879C0.597433 8.44674 0.407532 8.3626 0.241335 8.19639C0.086121 8.03019 0.00576391 7.84201 0.000263896 7.63185C-0.00523611 7.42169 0.075121 7.23351 0.241335 7.06732L7.03459 0.274059C7.13486 0.173792 7.24063 0.103048 7.3519 0.061834C7.46315 0.0206191 7.58334 1.20663e-05 7.71246 1.20606e-05C7.84159 1.2055e-05 7.96177 0.020619 8.07302 0.061834C8.18429 0.103048 8.29006 0.173792 8.39033 0.274059L15.1836 7.06732C15.3319 7.21566 15.4078 7.39937 15.4113 7.61846C15.4147 7.83755 15.3388 8.03019 15.1836 8.19639C15.0174 8.3626 14.8265 8.44571 14.6108 8.44571C14.3951 8.44571 14.2042 8.3626 14.038 8.19639L8.516 2.67441Z" fill="white"/>
</svg>
