<svg width="30" height="30" viewBox="0 0 30 30" fill="none" xmlns="http://www.w3.org/2000/svg">
<rect x="1.31134e-06" y="30" width="30" height="30" rx="15" transform="rotate(-90 1.31134e-06 30)" fill="#6898BB"/>
<path d="M15.81 9.84061L15.81 22.0302C15.81 22.2582 15.733 22.4491 15.5792 22.603C15.4254 22.7568 15.2344 22.8337 15.0064 22.8337C14.7784 22.8337 14.5875 22.7568 14.4336 22.603C14.2798 22.4491 14.2029 22.2582 14.2029 22.0302L14.2029 9.84061L8.66438 15.3791C8.50504 15.5384 8.31858 15.6171 8.10499 15.615C7.89138 15.6129 7.70148 15.5288 7.53528 15.3626C7.38007 15.1964 7.29971 15.0082 7.29421 14.7981C7.28871 14.5879 7.36907 14.3997 7.53528 14.2335L14.3285 7.44026C14.4288 7.33999 14.5346 7.26925 14.6458 7.22803C14.7571 7.18682 14.8773 7.16621 15.0064 7.16621C15.1355 7.16621 15.2557 7.18682 15.367 7.22803C15.4782 7.26925 15.584 7.33999 15.6843 7.44026L22.4775 14.2335C22.6259 14.3819 22.7018 14.5656 22.7052 14.7847C22.7086 15.0037 22.6327 15.1964 22.4775 15.3626C22.3113 15.5288 22.1204 15.6119 21.9047 15.6119C21.6891 15.6119 21.4982 15.5288 21.332 15.3626L15.81 9.84061Z" fill="white"/>
</svg>
