<svg width="20" height="20" viewBox="0 0 20 20" fill="none" xmlns="http://www.w3.org/2000/svg">
<mask id="mask0_1597_1758" style="mask-type:alpha" maskUnits="userSpaceOnUse" x="0" y="0" width="20" height="20">
<rect width="20" height="20" fill="#D9D9D9"/>
</mask>
<g mask="url(#mask0_1597_1758)">
<path d="M10.8337 11.6667H12.5003V9.16675H15.0003V7.50008H12.5003V5.00008H10.8337V7.50008H8.33366V9.16675H10.8337V11.6667ZM6.66699 15.0001C6.20866 15.0001 5.8163 14.8369 5.48991 14.5105C5.16352 14.1841 5.00033 13.7917 5.00033 13.3334V3.33341C5.00033 2.87508 5.16352 2.48272 5.48991 2.15633C5.8163 1.82994 6.20866 1.66675 6.66699 1.66675H16.667C17.1253 1.66675 17.5177 1.82994 17.8441 2.15633C18.1705 2.48272 18.3337 2.87508 18.3337 3.33341V13.3334C18.3337 13.7917 18.1705 14.1841 17.8441 14.5105C17.5177 14.8369 17.1253 15.0001 16.667 15.0001H6.66699ZM6.66699 13.3334H16.667V3.33341H6.66699V13.3334ZM3.33366 18.3334C2.87533 18.3334 2.48296 18.1702 2.15658 17.8438C1.83019 17.5174 1.66699 17.1251 1.66699 16.6667V5.00008H3.33366V16.6667H15.0003V18.3334H3.33366Z" fill="#545156"/>
</g>
</svg>
