<svg width="266" height="36" viewBox="0 0 266 36" fill="none" xmlns="http://www.w3.org/2000/svg">
<rect width="266" height="36" fill="#F4F7FA"/>
<mask id="mask0_1150_5522" style="mask-type:alpha" maskUnits="userSpaceOnUse" x="20" y="8" width="20" height="20">
<rect x="20" y="8" width="20" height="20" fill="#D9D9D9"/>
</mask>
<g mask="url(#mask0_1150_5522)">
<path d="M30.8337 19.6667H32.5003V17.1667H35.0003V15.5001H32.5003V13.0001H30.8337V15.5001H28.3337V17.1667H30.8337V19.6667ZM26.667 23.0001C26.2087 23.0001 25.8163 22.8369 25.4899 22.5105C25.1635 22.1841 25.0003 21.7917 25.0003 21.3334V11.3334C25.0003 10.8751 25.1635 10.4827 25.4899 10.1563C25.8163 9.82994 26.2087 9.66675 26.667 9.66675H36.667C37.1253 9.66675 37.5177 9.82994 37.8441 10.1563C38.1705 10.4827 38.3337 10.8751 38.3337 11.3334V21.3334C38.3337 21.7917 38.1705 22.1841 37.8441 22.5105C37.5177 22.8369 37.1253 23.0001 36.667 23.0001H26.667ZM26.667 21.3334H36.667V11.3334H26.667V21.3334ZM23.3337 26.3334C22.8753 26.3334 22.483 26.1702 22.1566 25.8438C21.8302 25.5174 21.667 25.1251 21.667 24.6667V13.0001H23.3337V24.6667H35.0003V26.3334H23.3337Z" fill="#545156"/>
</g>
<path d="M56.2246 14.7344C56.2246 16.7715 57.0586 18.8223 58.7266 19.7109L57.9609 20.7363C56.8057 20.0869 56.0195 18.9248 55.5957 17.5371C55.1377 19.0547 54.2969 20.3535 53.1074 21.0508L52.2871 20.1074C54.0371 19.082 54.9668 16.9082 54.9668 14.8164V12.5332H56.2246V14.7344ZM62.9922 11.4121V23.6621H61.748V17.3457H60.2715V23.0605H59.0273V11.6445H60.2715V16.293H61.748V11.4121H62.9922ZM77.8098 11.4121V23.6621H76.5656V17.2773H75.048V23.0605H73.8176V11.6445H75.048V16.2109H76.5656V11.4121H77.8098ZM72.4367 12.793V20.4355H67.6789V12.793H72.4367ZM68.9094 13.8184V19.3965H71.2199V13.8184H68.9094ZM89.2176 11.4121V23.6621H87.9324V17.332H85.1844V16.2656H87.9324V11.4121H89.2176ZM85.2254 12.7246C85.2117 16.2793 83.8309 19.3281 79.6746 21.3926L78.991 20.3672C82.2381 18.7812 83.6805 16.5732 83.9129 13.7637H79.5379V12.7246H85.2254ZM95.307 13.9688C95.307 15.5547 96.4828 17.0449 98.3695 17.6465L97.6996 18.6582C96.2914 18.1934 95.225 17.2295 94.6781 16.0059C94.1244 17.3389 93.0375 18.3916 91.5746 18.9043L90.9047 17.8789C92.8051 17.2363 93.9809 15.6504 93.9945 13.9688V13.4355H91.2465V12.3828H98.0004V13.4355H95.307V13.9688ZM100.926 11.4258V20.3672H99.6273V11.4258H100.926ZM101.295 22.3496V23.4023H92.9145V19.5195H94.227V22.3496H101.295Z" fill="#545156"/>
</svg>
