<svg width="266" height="36" viewBox="0 0 266 36" fill="none" xmlns="http://www.w3.org/2000/svg">
<rect width="266" height="36" fill="#F4F7FA"/>
<mask id="mask0_1150_5521" style="mask-type:alpha" maskUnits="userSpaceOnUse" x="20" y="8" width="20" height="20">
<rect x="20" y="8" width="20" height="20" fill="#D9D9D9"/>
</mask>
<g mask="url(#mask0_1150_5521)">
<path d="M22.5 18.8333V12.1667C22.5 11.7083 22.6632 11.316 22.9896 10.9896C23.316 10.6632 23.7083 10.5 24.1667 10.5H29.1667V18.8333H22.5ZM30.8333 10.5H35.8333C36.2917 10.5 36.684 10.6632 37.0104 10.9896C37.3368 11.316 37.5 11.7083 37.5 12.1667V15.5H30.8333V10.5ZM30.8333 25.5V17.1667H37.5V23.8333C37.5 24.2917 37.3368 24.684 37.0104 25.0104C36.684 25.3368 36.2917 25.5 35.8333 25.5H30.8333ZM22.5 20.5H29.1667V25.5H24.1667C23.7083 25.5 23.316 25.3368 22.9896 25.0104C22.6632 24.684 22.5 24.2917 22.5 23.8333V20.5ZM24.1667 17.1667H27.5V12.1667H24.1667V17.1667ZM32.5 13.8333H35.8333V12.1667H32.5V13.8333ZM32.5 18.8333V23.8333H35.8333V18.8333H32.5ZM24.1667 22.1667V23.8333H27.5V22.1667H24.1667Z" fill="#545156"/>
</g>
<path d="M57.6191 12.793V15.9785H59.2598V11.6445H60.5039V23.0605H59.2598V17.0449H57.6191V20.4355H52.8613V12.793H57.6191ZM54.0918 13.8184V19.3965H56.4023V13.8184H54.0918ZM62.9922 11.4121V23.6621H61.748V11.4121H62.9922ZM74.359 11.4258V20.3262H73.0602V11.4258H74.359ZM74.7281 22.3496V23.4023H66.3473V19.4238H67.6598V22.3496H74.7281ZM67.7145 12.2461C69.5602 12.2461 70.9684 13.5039 70.9684 15.2812C70.9684 17.0859 69.5602 18.3301 67.7145 18.3301C65.8687 18.3301 64.4469 17.0859 64.4469 15.2812C64.4469 13.5039 65.8687 12.2461 67.7145 12.2461ZM67.7145 13.3809C66.566 13.3809 65.7184 14.1602 65.7184 15.2812C65.7184 16.4297 66.566 17.1953 67.7145 17.1953C68.8355 17.1953 69.6969 16.4297 69.6969 15.2812C69.6969 14.1602 68.8355 13.3809 67.7145 13.3809Z" fill="#545156"/>
</svg>
